<?xml version="1.0" standalone="no"?>
<!DOCTYPE svg PUBLIC "-//W3C//DTD SVG 1.1//EN" "http://www.w3.org/Graphics/SVG/1.1/DTD/svg11.dtd">

<svg width="1920" height="1080" viewBox="0 0 1120 370" 
  xmlns="http://www.w3.org/2000/svg"
  xmlns:xlink="http://www.w3.org/1999/xlink">


<g font-size="18" font-family="Helvetica" fill="#555">
<text x="130" y="80" text-anchor="end">
Sunday
</text>
<text x="130" y="120" text-anchor="end">
Monday
</text>
<text x="130" y="160" text-anchor="end">
Tuesday
</text>
<text x="130" y="200" text-anchor="end">
Wednesday
</text>
<text x="130" y="240" text-anchor="end">
Thursday
</text>
<text x="130" y="280" text-anchor="end">
Friday
</text>
<text x="130" y="320" text-anchor="end">
Saturday
</text>
</g>
<g font-size="18" font-family="Helvetica" fill="#555">
<text x="160" y="50" text-anchor="middle">
0
</text>
<text x="200" y="50" text-anchor="middle">
1
</text>
<text x="240" y="50" text-anchor="middle">
2
</text>
<text x="280" y="50" text-anchor="middle">
3
</text>
<text x="320" y="50" text-anchor="middle">
4
</text>
<text x="360" y="50" text-anchor="middle">
5
</text>
<text x="400" y="50" text-anchor="middle">
6
</text>
<text x="440" y="50" text-anchor="middle">
7
</text>
<text x="480" y="50" text-anchor="middle">
8
</text>
<text x="520" y="50" text-anchor="middle">
9
</text>
<text x="560" y="50" text-anchor="middle">
10
</text>
<text x="600" y="50" text-anchor="middle">
11
</text>
<text x="640" y="50" text-anchor="middle">
12
</text>
<text x="680" y="50" text-anchor="middle">
13
</text>
<text x="720" y="50" text-anchor="middle">
14
</text>
<text x="760" y="50" text-anchor="middle">
15
</text>
<text x="800" y="50" text-anchor="middle">
16
</text>
<text x="840" y="50" text-anchor="middle">
17
</text>
<text x="880" y="50" text-anchor="middle">
18
</text>
<text x="920" y="50" text-anchor="middle">
19
</text>
<text x="960" y="50" text-anchor="middle">
20
</text>
<text x="1000" y="50" text-anchor="middle">
21
</text>
<text x="1040" y="50" text-anchor="middle">
22
</text>
<text x="1080" y="50" text-anchor="middle">
23
</text>
</g>
<circle cx="160" cy="80" r="16.152125279642057" fill="#008"/>
<rect x="140" y="60" width="40" height="40" fill="transparent" style="stroke-width:1; stroke:#ccc">
<title>
361 items
</title>
</rect>
<circle cx="200" cy="80" r="7.427293064876958" fill="#008"/>
<rect x="180" y="60" width="40" height="40" fill="transparent" style="stroke-width:1; stroke:#ccc">
<title>
166 items
</title>
</rect>
<circle cx="240" cy="80" r="2" fill="#ccc"/>
<rect x="220" y="60" width="40" height="40" fill="transparent" style="stroke-width:1; stroke:#ccc">
<title>
0 items
</title>
</rect>
<circle cx="280" cy="80" r="2" fill="#ccc"/>
<rect x="260" y="60" width="40" height="40" fill="transparent" style="stroke-width:1; stroke:#ccc">
<title>
0 items
</title>
</rect>
<circle cx="320" cy="80" r="2" fill="#ccc"/>
<rect x="300" y="60" width="40" height="40" fill="transparent" style="stroke-width:1; stroke:#ccc">
<title>
0 items
</title>
</rect>
<circle cx="360" cy="80" r="2" fill="#ccc"/>
<rect x="340" y="60" width="40" height="40" fill="transparent" style="stroke-width:1; stroke:#ccc">
<title>
0 items
</title>
</rect>
<circle cx="400" cy="80" r="2" fill="#ccc"/>
<rect x="380" y="60" width="40" height="40" fill="transparent" style="stroke-width:1; stroke:#ccc">
<title>
0 items
</title>
</rect>
<circle cx="440" cy="80" r="2" fill="#ccc"/>
<rect x="420" y="60" width="40" height="40" fill="transparent" style="stroke-width:1; stroke:#ccc">
<title>
0 items
</title>
</rect>
<circle cx="480" cy="80" r="2" fill="#ccc"/>
<rect x="460" y="60" width="40" height="40" fill="transparent" style="stroke-width:1; stroke:#ccc">
<title>
0 items
</title>
</rect>
<circle cx="520" cy="80" r="2" fill="#ccc"/>
<rect x="500" y="60" width="40" height="40" fill="transparent" style="stroke-width:1; stroke:#ccc">
<title>
0 items
</title>
</rect>
<circle cx="560" cy="80" r="2" fill="#ccc"/>
<rect x="540" y="60" width="40" height="40" fill="transparent" style="stroke-width:1; stroke:#ccc">
<title>
0 items
</title>
</rect>
<circle cx="600" cy="80" r="2" fill="#ccc"/>
<rect x="580" y="60" width="40" height="40" fill="transparent" style="stroke-width:1; stroke:#ccc">
<title>
0 items
</title>
</rect>
<circle cx="640" cy="80" r="2" fill="#ccc"/>
<rect x="620" y="60" width="40" height="40" fill="transparent" style="stroke-width:1; stroke:#ccc">
<title>
5 items
</title>
</rect>
<circle cx="680" cy="80" r="5.324384787472035" fill="#008"/>
<rect x="660" y="60" width="40" height="40" fill="transparent" style="stroke-width:1; stroke:#ccc">
<title>
119 items
</title>
</rect>
<circle cx="720" cy="80" r="7.158836689038031" fill="#008"/>
<rect x="700" y="60" width="40" height="40" fill="transparent" style="stroke-width:1; stroke:#ccc">
<title>
160 items
</title>
</rect>
<circle cx="760" cy="80" r="20.0" fill="#008"/>
<rect x="740" y="60" width="40" height="40" fill="transparent" style="stroke-width:1; stroke:#ccc">
<title>
447 items
</title>
</rect>
<circle cx="800" cy="80" r="8.814317673378076" fill="#008"/>
<rect x="780" y="60" width="40" height="40" fill="transparent" style="stroke-width:1; stroke:#ccc">
<title>
197 items
</title>
</rect>
<circle cx="840" cy="80" r="13.467561521252797" fill="#008"/>
<rect x="820" y="60" width="40" height="40" fill="transparent" style="stroke-width:1; stroke:#ccc">
<title>
301 items
</title>
</rect>
<circle cx="880" cy="80" r="17.449664429530202" fill="#008"/>
<rect x="860" y="60" width="40" height="40" fill="transparent" style="stroke-width:1; stroke:#ccc">
<title>
390 items
</title>
</rect>
<circle cx="920" cy="80" r="17.85234899328859" fill="#008"/>
<rect x="900" y="60" width="40" height="40" fill="transparent" style="stroke-width:1; stroke:#ccc">
<title>
399 items
</title>
</rect>
<circle cx="960" cy="80" r="7.382550335570469" fill="#008"/>
<rect x="940" y="60" width="40" height="40" fill="transparent" style="stroke-width:1; stroke:#ccc">
<title>
165 items
</title>
</rect>
<circle cx="1000" cy="80" r="2" fill="#ccc"/>
<rect x="980" y="60" width="40" height="40" fill="transparent" style="stroke-width:1; stroke:#ccc">
<title>
0 items
</title>
</rect>
<circle cx="1040" cy="80" r="2.1476510067114094" fill="#008"/>
<rect x="1020" y="60" width="40" height="40" fill="transparent" style="stroke-width:1; stroke:#ccc">
<title>
48 items
</title>
</rect>
<circle cx="1080" cy="80" r="10.782997762863534" fill="#008"/>
<rect x="1060" y="60" width="40" height="40" fill="transparent" style="stroke-width:1; stroke:#ccc">
<title>
241 items
</title>
</rect>
<circle cx="160" cy="120" r="3.4004474272930647" fill="#008"/>
<rect x="140" y="100" width="40" height="40" fill="transparent" style="stroke-width:1; stroke:#ccc">
<title>
76 items
</title>
</rect>
<circle cx="200" cy="120" r="2" fill="#ccc"/>
<rect x="180" y="100" width="40" height="40" fill="transparent" style="stroke-width:1; stroke:#ccc">
<title>
0 items
</title>
</rect>
<circle cx="240" cy="120" r="2" fill="#ccc"/>
<rect x="220" y="100" width="40" height="40" fill="transparent" style="stroke-width:1; stroke:#ccc">
<title>
0 items
</title>
</rect>
<circle cx="280" cy="120" r="2" fill="#ccc"/>
<rect x="260" y="100" width="40" height="40" fill="transparent" style="stroke-width:1; stroke:#ccc">
<title>
0 items
</title>
</rect>
<circle cx="320" cy="120" r="2" fill="#ccc"/>
<rect x="300" y="100" width="40" height="40" fill="transparent" style="stroke-width:1; stroke:#ccc">
<title>
0 items
</title>
</rect>
<circle cx="360" cy="120" r="2" fill="#ccc"/>
<rect x="340" y="100" width="40" height="40" fill="transparent" style="stroke-width:1; stroke:#ccc">
<title>
0 items
</title>
</rect>
<circle cx="400" cy="120" r="2" fill="#ccc"/>
<rect x="380" y="100" width="40" height="40" fill="transparent" style="stroke-width:1; stroke:#ccc">
<title>
0 items
</title>
</rect>
<circle cx="440" cy="120" r="2" fill="#ccc"/>
<rect x="420" y="100" width="40" height="40" fill="transparent" style="stroke-width:1; stroke:#ccc">
<title>
0 items
</title>
</rect>
<circle cx="480" cy="120" r="2" fill="#ccc"/>
<rect x="460" y="100" width="40" height="40" fill="transparent" style="stroke-width:1; stroke:#ccc">
<title>
0 items
</title>
</rect>
<circle cx="520" cy="120" r="2" fill="#ccc"/>
<rect x="500" y="100" width="40" height="40" fill="transparent" style="stroke-width:1; stroke:#ccc">
<title>
0 items
</title>
</rect>
<circle cx="560" cy="120" r="2" fill="#ccc"/>
<rect x="540" y="100" width="40" height="40" fill="transparent" style="stroke-width:1; stroke:#ccc">
<title>
0 items
</title>
</rect>
<circle cx="600" cy="120" r="2" fill="#ccc"/>
<rect x="580" y="100" width="40" height="40" fill="transparent" style="stroke-width:1; stroke:#ccc">
<title>
0 items
</title>
</rect>
<circle cx="640" cy="120" r="2" fill="#ccc"/>
<rect x="620" y="100" width="40" height="40" fill="transparent" style="stroke-width:1; stroke:#ccc">
<title>
0 items
</title>
</rect>
<circle cx="680" cy="120" r="2" fill="#ccc"/>
<rect x="660" y="100" width="40" height="40" fill="transparent" style="stroke-width:1; stroke:#ccc">
<title>
0 items
</title>
</rect>
<circle cx="720" cy="120" r="2" fill="#ccc"/>
<rect x="700" y="100" width="40" height="40" fill="transparent" style="stroke-width:1; stroke:#ccc">
<title>
0 items
</title>
</rect>
<circle cx="760" cy="120" r="2" fill="#ccc"/>
<rect x="740" y="100" width="40" height="40" fill="transparent" style="stroke-width:1; stroke:#ccc">
<title>
0 items
</title>
</rect>
<circle cx="800" cy="120" r="2" fill="#ccc"/>
<rect x="780" y="100" width="40" height="40" fill="transparent" style="stroke-width:1; stroke:#ccc">
<title>
0 items
</title>
</rect>
<circle cx="840" cy="120" r="2" fill="#ccc"/>
<rect x="820" y="100" width="40" height="40" fill="transparent" style="stroke-width:1; stroke:#ccc">
<title>
0 items
</title>
</rect>
<circle cx="880" cy="120" r="2" fill="#ccc"/>
<rect x="860" y="100" width="40" height="40" fill="transparent" style="stroke-width:1; stroke:#ccc">
<title>
0 items
</title>
</rect>
<circle cx="920" cy="120" r="2" fill="#ccc"/>
<rect x="900" y="100" width="40" height="40" fill="transparent" style="stroke-width:1; stroke:#ccc">
<title>
0 items
</title>
</rect>
<circle cx="960" cy="120" r="6.666666666666667" fill="#008"/>
<rect x="940" y="100" width="40" height="40" fill="transparent" style="stroke-width:1; stroke:#ccc">
<title>
149 items
</title>
</rect>
<circle cx="1000" cy="120" r="8.098434004474273" fill="#008"/>
<rect x="980" y="100" width="40" height="40" fill="transparent" style="stroke-width:1; stroke:#ccc">
<title>
181 items
</title>
</rect>
<circle cx="1040" cy="120" r="18.07606263982103" fill="#008"/>
<rect x="1020" y="100" width="40" height="40" fill="transparent" style="stroke-width:1; stroke:#ccc">
<title>
404 items
</title>
</rect>
<circle cx="1080" cy="120" r="12.438478747203579" fill="#008"/>
<rect x="1060" y="100" width="40" height="40" fill="transparent" style="stroke-width:1; stroke:#ccc">
<title>
278 items
</title>
</rect>
<circle cx="160" cy="160" r="2" fill="#ccc"/>
<rect x="140" y="140" width="40" height="40" fill="transparent" style="stroke-width:1; stroke:#ccc">
<title>
25 items
</title>
</rect>
<circle cx="200" cy="160" r="2" fill="#ccc"/>
<rect x="180" y="140" width="40" height="40" fill="transparent" style="stroke-width:1; stroke:#ccc">
<title>
0 items
</title>
</rect>
<circle cx="240" cy="160" r="2" fill="#ccc"/>
<rect x="220" y="140" width="40" height="40" fill="transparent" style="stroke-width:1; stroke:#ccc">
<title>
0 items
</title>
</rect>
<circle cx="280" cy="160" r="2" fill="#ccc"/>
<rect x="260" y="140" width="40" height="40" fill="transparent" style="stroke-width:1; stroke:#ccc">
<title>
0 items
</title>
</rect>
<circle cx="320" cy="160" r="2" fill="#ccc"/>
<rect x="300" y="140" width="40" height="40" fill="transparent" style="stroke-width:1; stroke:#ccc">
<title>
0 items
</title>
</rect>
<circle cx="360" cy="160" r="2" fill="#ccc"/>
<rect x="340" y="140" width="40" height="40" fill="transparent" style="stroke-width:1; stroke:#ccc">
<title>
0 items
</title>
</rect>
<circle cx="400" cy="160" r="2" fill="#ccc"/>
<rect x="380" y="140" width="40" height="40" fill="transparent" style="stroke-width:1; stroke:#ccc">
<title>
0 items
</title>
</rect>
<circle cx="440" cy="160" r="2" fill="#ccc"/>
<rect x="420" y="140" width="40" height="40" fill="transparent" style="stroke-width:1; stroke:#ccc">
<title>
0 items
</title>
</rect>
<circle cx="480" cy="160" r="11.319910514541387" fill="#008"/>
<rect x="460" y="140" width="40" height="40" fill="transparent" style="stroke-width:1; stroke:#ccc">
<title>
253 items
</title>
</rect>
<circle cx="520" cy="160" r="6.308724832214765" fill="#008"/>
<rect x="500" y="140" width="40" height="40" fill="transparent" style="stroke-width:1; stroke:#ccc">
<title>
141 items
</title>
</rect>
<circle cx="560" cy="160" r="3.0425055928411635" fill="#008"/>
<rect x="540" y="140" width="40" height="40" fill="transparent" style="stroke-width:1; stroke:#ccc">
<title>
68 items
</title>
</rect>
<circle cx="600" cy="160" r="2" fill="#ccc"/>
<rect x="580" y="140" width="40" height="40" fill="transparent" style="stroke-width:1; stroke:#ccc">
<title>
0 items
</title>
</rect>
<circle cx="640" cy="160" r="3.4004474272930647" fill="#008"/>
<rect x="620" y="140" width="40" height="40" fill="transparent" style="stroke-width:1; stroke:#ccc">
<title>
76 items
</title>
</rect>
<circle cx="680" cy="160" r="2" fill="#ccc"/>
<rect x="660" y="140" width="40" height="40" fill="transparent" style="stroke-width:1; stroke:#ccc">
<title>
0 items
</title>
</rect>
<circle cx="720" cy="160" r="2" fill="#ccc"/>
<rect x="700" y="140" width="40" height="40" fill="transparent" style="stroke-width:1; stroke:#ccc">
<title>
0 items
</title>
</rect>
<circle cx="760" cy="160" r="2" fill="#ccc"/>
<rect x="740" y="140" width="40" height="40" fill="transparent" style="stroke-width:1; stroke:#ccc">
<title>
0 items
</title>
</rect>
<circle cx="800" cy="160" r="2" fill="#ccc"/>
<rect x="780" y="140" width="40" height="40" fill="transparent" style="stroke-width:1; stroke:#ccc">
<title>
0 items
</title>
</rect>
<circle cx="840" cy="160" r="2" fill="#ccc"/>
<rect x="820" y="140" width="40" height="40" fill="transparent" style="stroke-width:1; stroke:#ccc">
<title>
0 items
</title>
</rect>
<circle cx="880" cy="160" r="2" fill="#ccc"/>
<rect x="860" y="140" width="40" height="40" fill="transparent" style="stroke-width:1; stroke:#ccc">
<title>
20 items
</title>
</rect>
<circle cx="920" cy="160" r="4.876957494407159" fill="#008"/>
<rect x="900" y="140" width="40" height="40" fill="transparent" style="stroke-width:1; stroke:#ccc">
<title>
109 items
</title>
</rect>
<circle cx="960" cy="160" r="6.39821029082774" fill="#008"/>
<rect x="940" y="140" width="40" height="40" fill="transparent" style="stroke-width:1; stroke:#ccc">
<title>
143 items
</title>
</rect>
<circle cx="1000" cy="160" r="4.0715883668903805" fill="#008"/>
<rect x="980" y="140" width="40" height="40" fill="transparent" style="stroke-width:1; stroke:#ccc">
<title>
91 items
</title>
</rect>
<circle cx="1040" cy="160" r="6.756152125279642" fill="#008"/>
<rect x="1020" y="140" width="40" height="40" fill="transparent" style="stroke-width:1; stroke:#ccc">
<title>
151 items
</title>
</rect>
<circle cx="1080" cy="160" r="10.46979865771812" fill="#008"/>
<rect x="1060" y="140" width="40" height="40" fill="transparent" style="stroke-width:1; stroke:#ccc">
<title>
234 items
</title>
</rect>
<circle cx="160" cy="200" r="2" fill="#ccc"/>
<rect x="140" y="180" width="40" height="40" fill="transparent" style="stroke-width:1; stroke:#ccc">
<title>
31 items
</title>
</rect>
<circle cx="200" cy="200" r="2" fill="#ccc"/>
<rect x="180" y="180" width="40" height="40" fill="transparent" style="stroke-width:1; stroke:#ccc">
<title>
0 items
</title>
</rect>
<circle cx="240" cy="200" r="2" fill="#ccc"/>
<rect x="220" y="180" width="40" height="40" fill="transparent" style="stroke-width:1; stroke:#ccc">
<title>
0 items
</title>
</rect>
<circle cx="280" cy="200" r="2" fill="#ccc"/>
<rect x="260" y="180" width="40" height="40" fill="transparent" style="stroke-width:1; stroke:#ccc">
<title>
0 items
</title>
</rect>
<circle cx="320" cy="200" r="2" fill="#ccc"/>
<rect x="300" y="180" width="40" height="40" fill="transparent" style="stroke-width:1; stroke:#ccc">
<title>
0 items
</title>
</rect>
<circle cx="360" cy="200" r="2" fill="#ccc"/>
<rect x="340" y="180" width="40" height="40" fill="transparent" style="stroke-width:1; stroke:#ccc">
<title>
0 items
</title>
</rect>
<circle cx="400" cy="200" r="2" fill="#ccc"/>
<rect x="380" y="180" width="40" height="40" fill="transparent" style="stroke-width:1; stroke:#ccc">
<title>
0 items
</title>
</rect>
<circle cx="440" cy="200" r="2" fill="#ccc"/>
<rect x="420" y="180" width="40" height="40" fill="transparent" style="stroke-width:1; stroke:#ccc">
<title>
0 items
</title>
</rect>
<circle cx="480" cy="200" r="2" fill="#ccc"/>
<rect x="460" y="180" width="40" height="40" fill="transparent" style="stroke-width:1; stroke:#ccc">
<title>
0 items
</title>
</rect>
<circle cx="520" cy="200" r="2" fill="#ccc"/>
<rect x="500" y="180" width="40" height="40" fill="transparent" style="stroke-width:1; stroke:#ccc">
<title>
0 items
</title>
</rect>
<circle cx="560" cy="200" r="2" fill="#ccc"/>
<rect x="540" y="180" width="40" height="40" fill="transparent" style="stroke-width:1; stroke:#ccc">
<title>
0 items
</title>
</rect>
<circle cx="600" cy="200" r="2" fill="#ccc"/>
<rect x="580" y="180" width="40" height="40" fill="transparent" style="stroke-width:1; stroke:#ccc">
<title>
0 items
</title>
</rect>
<circle cx="640" cy="200" r="2" fill="#ccc"/>
<rect x="620" y="180" width="40" height="40" fill="transparent" style="stroke-width:1; stroke:#ccc">
<title>
0 items
</title>
</rect>
<circle cx="680" cy="200" r="2" fill="#ccc"/>
<rect x="660" y="180" width="40" height="40" fill="transparent" style="stroke-width:1; stroke:#ccc">
<title>
0 items
</title>
</rect>
<circle cx="720" cy="200" r="2" fill="#ccc"/>
<rect x="700" y="180" width="40" height="40" fill="transparent" style="stroke-width:1; stroke:#ccc">
<title>
0 items
</title>
</rect>
<circle cx="760" cy="200" r="2" fill="#ccc"/>
<rect x="740" y="180" width="40" height="40" fill="transparent" style="stroke-width:1; stroke:#ccc">
<title>
0 items
</title>
</rect>
<circle cx="800" cy="200" r="2" fill="#ccc"/>
<rect x="780" y="180" width="40" height="40" fill="transparent" style="stroke-width:1; stroke:#ccc">
<title>
0 items
</title>
</rect>
<circle cx="840" cy="200" r="2" fill="#ccc"/>
<rect x="820" y="180" width="40" height="40" fill="transparent" style="stroke-width:1; stroke:#ccc">
<title>
0 items
</title>
</rect>
<circle cx="880" cy="200" r="2" fill="#ccc"/>
<rect x="860" y="180" width="40" height="40" fill="transparent" style="stroke-width:1; stroke:#ccc">
<title>
0 items
</title>
</rect>
<circle cx="920" cy="200" r="2" fill="#ccc"/>
<rect x="900" y="180" width="40" height="40" fill="transparent" style="stroke-width:1; stroke:#ccc">
<title>
13 items
</title>
</rect>
<circle cx="960" cy="200" r="4.250559284116331" fill="#008"/>
<rect x="940" y="180" width="40" height="40" fill="transparent" style="stroke-width:1; stroke:#ccc">
<title>
95 items
</title>
</rect>
<circle cx="1000" cy="200" r="2.953020134228188" fill="#008"/>
<rect x="980" y="180" width="40" height="40" fill="transparent" style="stroke-width:1; stroke:#ccc">
<title>
66 items
</title>
</rect>
<circle cx="1040" cy="200" r="2.192393736017897" fill="#008"/>
<rect x="1020" y="180" width="40" height="40" fill="transparent" style="stroke-width:1; stroke:#ccc">
<title>
49 items
</title>
</rect>
<circle cx="1080" cy="200" r="5.906040268456376" fill="#008"/>
<rect x="1060" y="180" width="40" height="40" fill="transparent" style="stroke-width:1; stroke:#ccc">
<title>
132 items
</title>
</rect>
<circle cx="160" cy="240" r="3.5794183445190155" fill="#008"/>
<rect x="140" y="220" width="40" height="40" fill="transparent" style="stroke-width:1; stroke:#ccc">
<title>
80 items
</title>
</rect>
<circle cx="200" cy="240" r="2" fill="#ccc"/>
<rect x="180" y="220" width="40" height="40" fill="transparent" style="stroke-width:1; stroke:#ccc">
<title>
0 items
</title>
</rect>
<circle cx="240" cy="240" r="2" fill="#ccc"/>
<rect x="220" y="220" width="40" height="40" fill="transparent" style="stroke-width:1; stroke:#ccc">
<title>
0 items
</title>
</rect>
<circle cx="280" cy="240" r="2" fill="#ccc"/>
<rect x="260" y="220" width="40" height="40" fill="transparent" style="stroke-width:1; stroke:#ccc">
<title>
0 items
</title>
</rect>
<circle cx="320" cy="240" r="2" fill="#ccc"/>
<rect x="300" y="220" width="40" height="40" fill="transparent" style="stroke-width:1; stroke:#ccc">
<title>
0 items
</title>
</rect>
<circle cx="360" cy="240" r="2" fill="#ccc"/>
<rect x="340" y="220" width="40" height="40" fill="transparent" style="stroke-width:1; stroke:#ccc">
<title>
0 items
</title>
</rect>
<circle cx="400" cy="240" r="2" fill="#ccc"/>
<rect x="380" y="220" width="40" height="40" fill="transparent" style="stroke-width:1; stroke:#ccc">
<title>
0 items
</title>
</rect>
<circle cx="440" cy="240" r="4.295302013422819" fill="#008"/>
<rect x="420" y="220" width="40" height="40" fill="transparent" style="stroke-width:1; stroke:#ccc">
<title>
96 items
</title>
</rect>
<circle cx="480" cy="240" r="11.45413870246085" fill="#008"/>
<rect x="460" y="220" width="40" height="40" fill="transparent" style="stroke-width:1; stroke:#ccc">
<title>
256 items
</title>
</rect>
<circle cx="520" cy="240" r="10.06711409395973" fill="#008"/>
<rect x="500" y="220" width="40" height="40" fill="transparent" style="stroke-width:1; stroke:#ccc">
<title>
225 items
</title>
</rect>
<circle cx="560" cy="240" r="2.2818791946308723" fill="#008"/>
<rect x="540" y="220" width="40" height="40" fill="transparent" style="stroke-width:1; stroke:#ccc">
<title>
51 items
</title>
</rect>
<circle cx="600" cy="240" r="2" fill="#ccc"/>
<rect x="580" y="220" width="40" height="40" fill="transparent" style="stroke-width:1; stroke:#ccc">
<title>
0 items
</title>
</rect>
<circle cx="640" cy="240" r="2" fill="#ccc"/>
<rect x="620" y="220" width="40" height="40" fill="transparent" style="stroke-width:1; stroke:#ccc">
<title>
0 items
</title>
</rect>
<circle cx="680" cy="240" r="2" fill="#ccc"/>
<rect x="660" y="220" width="40" height="40" fill="transparent" style="stroke-width:1; stroke:#ccc">
<title>
0 items
</title>
</rect>
<circle cx="720" cy="240" r="2" fill="#ccc"/>
<rect x="700" y="220" width="40" height="40" fill="transparent" style="stroke-width:1; stroke:#ccc">
<title>
0 items
</title>
</rect>
<circle cx="760" cy="240" r="2" fill="#ccc"/>
<rect x="740" y="220" width="40" height="40" fill="transparent" style="stroke-width:1; stroke:#ccc">
<title>
0 items
</title>
</rect>
<circle cx="800" cy="240" r="2" fill="#ccc"/>
<rect x="780" y="220" width="40" height="40" fill="transparent" style="stroke-width:1; stroke:#ccc">
<title>
0 items
</title>
</rect>
<circle cx="840" cy="240" r="2" fill="#ccc"/>
<rect x="820" y="220" width="40" height="40" fill="transparent" style="stroke-width:1; stroke:#ccc">
<title>
0 items
</title>
</rect>
<circle cx="880" cy="240" r="2" fill="#ccc"/>
<rect x="860" y="220" width="40" height="40" fill="transparent" style="stroke-width:1; stroke:#ccc">
<title>
0 items
</title>
</rect>
<circle cx="920" cy="240" r="2" fill="#ccc"/>
<rect x="900" y="220" width="40" height="40" fill="transparent" style="stroke-width:1; stroke:#ccc">
<title>
0 items
</title>
</rect>
<circle cx="960" cy="240" r="2" fill="#ccc"/>
<rect x="940" y="220" width="40" height="40" fill="transparent" style="stroke-width:1; stroke:#ccc">
<title>
0 items
</title>
</rect>
<circle cx="1000" cy="240" r="2" fill="#ccc"/>
<rect x="980" y="220" width="40" height="40" fill="transparent" style="stroke-width:1; stroke:#ccc">
<title>
9 items
</title>
</rect>
<circle cx="1040" cy="240" r="5.771812080536913" fill="#008"/>
<rect x="1020" y="220" width="40" height="40" fill="transparent" style="stroke-width:1; stroke:#ccc">
<title>
129 items
</title>
</rect>
<circle cx="1080" cy="240" r="7.874720357941834" fill="#008"/>
<rect x="1060" y="220" width="40" height="40" fill="transparent" style="stroke-width:1; stroke:#ccc">
<title>
176 items
</title>
</rect>
<circle cx="160" cy="280" r="12.393736017897092" fill="#008"/>
<rect x="140" y="260" width="40" height="40" fill="transparent" style="stroke-width:1; stroke:#ccc">
<title>
277 items
</title>
</rect>
<circle cx="200" cy="280" r="4.116331096196868" fill="#008"/>
<rect x="180" y="260" width="40" height="40" fill="transparent" style="stroke-width:1; stroke:#ccc">
<title>
92 items
</title>
</rect>
<circle cx="240" cy="280" r="2" fill="#ccc"/>
<rect x="220" y="260" width="40" height="40" fill="transparent" style="stroke-width:1; stroke:#ccc">
<title>
0 items
</title>
</rect>
<circle cx="280" cy="280" r="2" fill="#ccc"/>
<rect x="260" y="260" width="40" height="40" fill="transparent" style="stroke-width:1; stroke:#ccc">
<title>
0 items
</title>
</rect>
<circle cx="320" cy="280" r="2" fill="#ccc"/>
<rect x="300" y="260" width="40" height="40" fill="transparent" style="stroke-width:1; stroke:#ccc">
<title>
0 items
</title>
</rect>
<circle cx="360" cy="280" r="2" fill="#ccc"/>
<rect x="340" y="260" width="40" height="40" fill="transparent" style="stroke-width:1; stroke:#ccc">
<title>
0 items
</title>
</rect>
<circle cx="400" cy="280" r="2" fill="#ccc"/>
<rect x="380" y="260" width="40" height="40" fill="transparent" style="stroke-width:1; stroke:#ccc">
<title>
0 items
</title>
</rect>
<circle cx="440" cy="280" r="2" fill="#ccc"/>
<rect x="420" y="260" width="40" height="40" fill="transparent" style="stroke-width:1; stroke:#ccc">
<title>
0 items
</title>
</rect>
<circle cx="480" cy="280" r="6.1297539149888145" fill="#008"/>
<rect x="460" y="260" width="40" height="40" fill="transparent" style="stroke-width:1; stroke:#ccc">
<title>
137 items
</title>
</rect>
<circle cx="520" cy="280" r="2" fill="#ccc"/>
<rect x="500" y="260" width="40" height="40" fill="transparent" style="stroke-width:1; stroke:#ccc">
<title>
0 items
</title>
</rect>
<circle cx="560" cy="280" r="2" fill="#ccc"/>
<rect x="540" y="260" width="40" height="40" fill="transparent" style="stroke-width:1; stroke:#ccc">
<title>
0 items
</title>
</rect>
<circle cx="600" cy="280" r="2" fill="#ccc"/>
<rect x="580" y="260" width="40" height="40" fill="transparent" style="stroke-width:1; stroke:#ccc">
<title>
0 items
</title>
</rect>
<circle cx="640" cy="280" r="2" fill="#ccc"/>
<rect x="620" y="260" width="40" height="40" fill="transparent" style="stroke-width:1; stroke:#ccc">
<title>
0 items
</title>
</rect>
<circle cx="680" cy="280" r="2" fill="#ccc"/>
<rect x="660" y="260" width="40" height="40" fill="transparent" style="stroke-width:1; stroke:#ccc">
<title>
0 items
</title>
</rect>
<circle cx="720" cy="280" r="2" fill="#ccc"/>
<rect x="700" y="260" width="40" height="40" fill="transparent" style="stroke-width:1; stroke:#ccc">
<title>
0 items
</title>
</rect>
<circle cx="760" cy="280" r="2" fill="#ccc"/>
<rect x="740" y="260" width="40" height="40" fill="transparent" style="stroke-width:1; stroke:#ccc">
<title>
0 items
</title>
</rect>
<circle cx="800" cy="280" r="2" fill="#ccc"/>
<rect x="780" y="260" width="40" height="40" fill="transparent" style="stroke-width:1; stroke:#ccc">
<title>
0 items
</title>
</rect>
<circle cx="840" cy="280" r="2" fill="#ccc"/>
<rect x="820" y="260" width="40" height="40" fill="transparent" style="stroke-width:1; stroke:#ccc">
<title>
0 items
</title>
</rect>
<circle cx="880" cy="280" r="2" fill="#ccc"/>
<rect x="860" y="260" width="40" height="40" fill="transparent" style="stroke-width:1; stroke:#ccc">
<title>
0 items
</title>
</rect>
<circle cx="920" cy="280" r="2" fill="#ccc"/>
<rect x="900" y="260" width="40" height="40" fill="transparent" style="stroke-width:1; stroke:#ccc">
<title>
0 items
</title>
</rect>
<circle cx="960" cy="280" r="2" fill="#ccc"/>
<rect x="940" y="260" width="40" height="40" fill="transparent" style="stroke-width:1; stroke:#ccc">
<title>
0 items
</title>
</rect>
<circle cx="1000" cy="280" r="2" fill="#ccc"/>
<rect x="980" y="260" width="40" height="40" fill="transparent" style="stroke-width:1; stroke:#ccc">
<title>
0 items
</title>
</rect>
<circle cx="1040" cy="280" r="2" fill="#ccc"/>
<rect x="1020" y="260" width="40" height="40" fill="transparent" style="stroke-width:1; stroke:#ccc">
<title>
0 items
</title>
</rect>
<circle cx="1080" cy="280" r="2" fill="#ccc"/>
<rect x="1060" y="260" width="40" height="40" fill="transparent" style="stroke-width:1; stroke:#ccc">
<title>
0 items
</title>
</rect>
<circle cx="160" cy="320" r="2" fill="#ccc"/>
<rect x="140" y="300" width="40" height="40" fill="transparent" style="stroke-width:1; stroke:#ccc">
<title>
0 items
</title>
</rect>
<circle cx="200" cy="320" r="2" fill="#ccc"/>
<rect x="180" y="300" width="40" height="40" fill="transparent" style="stroke-width:1; stroke:#ccc">
<title>
0 items
</title>
</rect>
<circle cx="240" cy="320" r="2" fill="#ccc"/>
<rect x="220" y="300" width="40" height="40" fill="transparent" style="stroke-width:1; stroke:#ccc">
<title>
0 items
</title>
</rect>
<circle cx="280" cy="320" r="2" fill="#ccc"/>
<rect x="260" y="300" width="40" height="40" fill="transparent" style="stroke-width:1; stroke:#ccc">
<title>
0 items
</title>
</rect>
<circle cx="320" cy="320" r="2" fill="#ccc"/>
<rect x="300" y="300" width="40" height="40" fill="transparent" style="stroke-width:1; stroke:#ccc">
<title>
0 items
</title>
</rect>
<circle cx="360" cy="320" r="2" fill="#ccc"/>
<rect x="340" y="300" width="40" height="40" fill="transparent" style="stroke-width:1; stroke:#ccc">
<title>
0 items
</title>
</rect>
<circle cx="400" cy="320" r="2" fill="#ccc"/>
<rect x="380" y="300" width="40" height="40" fill="transparent" style="stroke-width:1; stroke:#ccc">
<title>
0 items
</title>
</rect>
<circle cx="440" cy="320" r="2" fill="#ccc"/>
<rect x="420" y="300" width="40" height="40" fill="transparent" style="stroke-width:1; stroke:#ccc">
<title>
0 items
</title>
</rect>
<circle cx="480" cy="320" r="2" fill="#ccc"/>
<rect x="460" y="300" width="40" height="40" fill="transparent" style="stroke-width:1; stroke:#ccc">
<title>
0 items
</title>
</rect>
<circle cx="520" cy="320" r="2" fill="#ccc"/>
<rect x="500" y="300" width="40" height="40" fill="transparent" style="stroke-width:1; stroke:#ccc">
<title>
0 items
</title>
</rect>
<circle cx="560" cy="320" r="2" fill="#ccc"/>
<rect x="540" y="300" width="40" height="40" fill="transparent" style="stroke-width:1; stroke:#ccc">
<title>
0 items
</title>
</rect>
<circle cx="600" cy="320" r="2" fill="#ccc"/>
<rect x="580" y="300" width="40" height="40" fill="transparent" style="stroke-width:1; stroke:#ccc">
<title>
0 items
</title>
</rect>
<circle cx="640" cy="320" r="2.7293064876957494" fill="#008"/>
<rect x="620" y="300" width="40" height="40" fill="transparent" style="stroke-width:1; stroke:#ccc">
<title>
61 items
</title>
</rect>
<circle cx="680" cy="320" r="2" fill="#ccc"/>
<rect x="660" y="300" width="40" height="40" fill="transparent" style="stroke-width:1; stroke:#ccc">
<title>
31 items
</title>
</rect>
<circle cx="720" cy="320" r="2" fill="#ccc"/>
<rect x="700" y="300" width="40" height="40" fill="transparent" style="stroke-width:1; stroke:#ccc">
<title>
0 items
</title>
</rect>
<circle cx="760" cy="320" r="2" fill="#ccc"/>
<rect x="740" y="300" width="40" height="40" fill="transparent" style="stroke-width:1; stroke:#ccc">
<title>
0 items
</title>
</rect>
<circle cx="800" cy="320" r="2" fill="#ccc"/>
<rect x="780" y="300" width="40" height="40" fill="transparent" style="stroke-width:1; stroke:#ccc">
<title>
0 items
</title>
</rect>
<circle cx="840" cy="320" r="2.192393736017897" fill="#008"/>
<rect x="820" y="300" width="40" height="40" fill="transparent" style="stroke-width:1; stroke:#ccc">
<title>
49 items
</title>
</rect>
<circle cx="880" cy="320" r="5.413870246085011" fill="#008"/>
<rect x="860" y="300" width="40" height="40" fill="transparent" style="stroke-width:1; stroke:#ccc">
<title>
121 items
</title>
</rect>
<circle cx="920" cy="320" r="8.411633109619688" fill="#008"/>
<rect x="900" y="300" width="40" height="40" fill="transparent" style="stroke-width:1; stroke:#ccc">
<title>
188 items
</title>
</rect>
<circle cx="960" cy="320" r="7.427293064876958" fill="#008"/>
<rect x="940" y="300" width="40" height="40" fill="transparent" style="stroke-width:1; stroke:#ccc">
<title>
166 items
</title>
</rect>
<circle cx="1000" cy="320" r="8.859060402684564" fill="#008"/>
<rect x="980" y="300" width="40" height="40" fill="transparent" style="stroke-width:1; stroke:#ccc">
<title>
198 items
</title>
</rect>
<circle cx="1040" cy="320" r="17.225950782997764" fill="#008"/>
<rect x="1020" y="300" width="40" height="40" fill="transparent" style="stroke-width:1; stroke:#ccc">
<title>
385 items
</title>
</rect>
<circle cx="1080" cy="320" r="13.78076062639821" fill="#008"/>
<rect x="1060" y="300" width="40" height="40" fill="transparent" style="stroke-width:1; stroke:#ccc">
<title>
308 items
</title>
</rect>

</svg>